HIERARCHY
ROOT mixamorig:Hips
{
	OFFSET 0.000000 201.639420 0.000000
	CHANNELS 6 Xposition Yposition Zposition Xrotation Yrotation Zrotation
	JOINT mixamorig:Spine
	{
		OFFSET 0.006200 19.524994 -2.481800
		CHANNELS 3 Xrotation Yrotation Zrotation
		JOINT mixamorig:Spine1
		{
			OFFSET -0.000900 22.835007 -2.825400
			CHANNELS 3 Xrotation Yrotation Zrotation
			JOINT mixamorig:Spine2
			{
				OFFSET -0.020600 26.552490 -3.193300
				CHANNELS 3 Xrotation Yrotation Zrotation
				JOINT mixamorig:Neck
				{
					OFFSET -0.060000 30.701813 1.352200
					CHANNELS 3 Xrotation Yrotation Zrotation
					JOINT mixamorig:Head
					{
						OFFSET -0.087200 22.547607 3.670900
						CHANNELS 3 Xrotation Yrotation Zrotation
						JOINT mixamorig:HeadTop_End
						{
							OFFSET -0.830600 40.355194 7.893500
							CHANNELS 3 Xrotation Yrotation Zrotation
							End Site
							{
								OFFSET 0.000000 30.592346 0.000000
							}
						}
						JOINT mixamorig:RightEye
						{
							OFFSET -6.302100 18.118591 16.197100
							CHANNELS 3 Xrotation Yrotation Zrotation
							End Site
							{
								OFFSET 0.000000 30.592346 0.000000
							}
						}
						JOINT mixamorig:LeftEye
						{
							OFFSET 6.741500 18.382690 16.401899
							CHANNELS 3 Xrotation Yrotation Zrotation
							End Site
							{
								OFFSET 0.000000 30.592346 0.000000
							}
						}
					}
				}
				JOINT mixamorig:LeftShoulder
				{
					OFFSET 11.924900 18.230499 1.425400
					CHANNELS 3 Xrotation Yrotation Zrotation
					JOINT mixamorig:LeftArm
					{
						OFFSET 25.435989 -0.697632 -5.229300
						CHANNELS 3 Xrotation Yrotation Zrotation
						JOINT mixamorig:LeftForeArm
						{
							OFFSET 54.684776 0.000000 0.000000
							CHANNELS 3 Xrotation Yrotation Zrotation
							JOINT mixamorig:LeftHand
							{
								OFFSET 55.098175 0.000000 0.000000
								CHANNELS 3 Xrotation Yrotation Zrotation
								JOINT mixamorig:LeftHandMiddle1
								{
									OFFSET 23.369751 0.000000 0.000000
									CHANNELS 3 Xrotation Yrotation Zrotation
									JOINT mixamorig:LeftHandMiddle2
									{
										OFFSET 6.378677 0.000000 0.000000
										CHANNELS 3 Xrotation Yrotation Zrotation
										JOINT mixamorig:LeftHandMiddle3
										{
											OFFSET 6.148331 0.000000 0.000000
											CHANNELS 3 Xrotation Yrotation Zrotation
											JOINT mixamorig:LeftHandMiddle4
											{
												OFFSET 6.582504 0.000000 0.000000
												CHANNELS 3 Xrotation Yrotation Zrotation
												End Site
												{
													OFFSET -1.168900 6.395691 1.028606
												}
											}
										}
									}
								}
								JOINT mixamorig:LeftHandThumb1
								{
									OFFSET 7.235672 -3.848206 5.434273
									CHANNELS 3 Xrotation Yrotation Zrotation
									JOINT mixamorig:LeftHandThumb2
									{
										OFFSET 6.568451 -3.792297 3.792300
										CHANNELS 3 Xrotation Yrotation Zrotation
										JOINT mixamorig:LeftHandThumb3
										{
											OFFSET 6.063080 -3.500519 3.500518
											CHANNELS 3 Xrotation Yrotation Zrotation
											JOINT mixamorig:LeftHandThumb4
											{
												OFFSET 4.793182 -2.767334 2.767349
												CHANNELS 3 Xrotation Yrotation Zrotation
												End Site
												{
													OFFSET 0.101639 6.054260 1.275483
												}
											}
										}
									}
								}
								JOINT mixamorig:LeftHandIndex1
								{
									OFFSET 23.101074 -0.309540 4.992809
									CHANNELS 3 Xrotation Yrotation Zrotation
									JOINT mixamorig:LeftHandIndex2
									{
										OFFSET 6.226883 0.000000 0.000000
										CHANNELS 3 Xrotation Yrotation Zrotation
										JOINT mixamorig:LeftHandIndex3
										{
											OFFSET 6.094330 0.000000 0.000000
											CHANNELS 3 Xrotation Yrotation Zrotation
											JOINT mixamorig:LeftHandIndex4
											{
												OFFSET 5.482605 0.000000 0.000000
												CHANNELS 3 Xrotation Yrotation Zrotation
												End Site
												{
													OFFSET -1.427902 5.233032 0.797164
												}
											}
										}
									}
								}
								JOINT mixamorig:LeftHandRing1
								{
									OFFSET 22.299240 0.021149 -3.964172
									CHANNELS 3 Xrotation Yrotation Zrotation
									JOINT mixamorig:LeftHandRing2
									{
										OFFSET 6.321869 0.000000 0.000000
										CHANNELS 3 Xrotation Yrotation Zrotation
										JOINT mixamorig:LeftHandRing3
										{
											OFFSET 5.899796 0.000000 0.000000
											CHANNELS 3 Xrotation Yrotation Zrotation
											JOINT mixamorig:LeftHandRing4
											{
												OFFSET 6.517899 0.000000 0.000000
												CHANNELS 3 Xrotation Yrotation Zrotation
												End Site
												{
													OFFSET -1.637299 6.232208 0.980890
												}
											}
										}
									}
								}
								JOINT mixamorig:LeftHandPinky1
								{
									OFFSET 20.463791 -0.302338 -8.562233
									CHANNELS 3 Xrotation Yrotation Zrotation
									JOINT mixamorig:LeftHandPinky2
									{
										OFFSET 6.908646 0.000000 0.000000
										CHANNELS 3 Xrotation Yrotation Zrotation
										JOINT mixamorig:LeftHandPinky3
										{
											OFFSET 4.622849 0.000000 0.000000
											CHANNELS 3 Xrotation Yrotation Zrotation
											JOINT mixamorig:LeftHandPinky4
											{
												OFFSET 5.216080 0.000000 0.000000
												CHANNELS 3 Xrotation Yrotation Zrotation
												End Site
												{
													OFFSET -0.606308 5.116241 0.814926
												}
											}
										}
									}
								}
							}
						}
					}
				}
				JOINT mixamorig:RightShoulder
				{
					OFFSET -12.001300 18.284088 1.348900
					CHANNELS 3 Xrotation Yrotation Zrotation
					JOINT mixamorig:RightArm
					{
						OFFSET -25.308500 -0.751312 -5.164599
						CHANNELS 3 Xrotation Yrotation Zrotation
						JOINT mixamorig:RightForeArm
						{
							OFFSET -54.684429 0.000000 0.000000
							CHANNELS 3 Xrotation Yrotation Zrotation
							JOINT mixamorig:RightHand
							{
								OFFSET -55.150291 0.000000 0.000000
								CHANNELS 3 Xrotation Yrotation Zrotation
								JOINT mixamorig:RightHandMiddle1
								{
									OFFSET -23.317566 0.000000 0.000000
									CHANNELS 3 Xrotation Yrotation Zrotation
									JOINT mixamorig:RightHandMiddle2
									{
										OFFSET -6.378403 0.000000 0.000000
										CHANNELS 3 Xrotation Yrotation Zrotation
										JOINT mixamorig:RightHandMiddle3
										{
											OFFSET -6.148193 0.000000 0.000000
											CHANNELS 3 Xrotation Yrotation Zrotation
											JOINT mixamorig:RightHandMiddle4
											{
												OFFSET -6.583389 0.000000 0.000000
												CHANNELS 3 Xrotation Yrotation Zrotation
												End Site
												{
													OFFSET 1.171692 6.395905 1.029786
												}
											}
										}
									}
								}
								JOINT mixamorig:RightHandThumb1
								{
									OFFSET -7.190521 -3.860474 5.435846
									CHANNELS 3 Xrotation Yrotation Zrotation
									JOINT mixamorig:RightHandThumb2
									{
										OFFSET -6.567429 -3.791718 3.791708
										CHANNELS 3 Xrotation Yrotation Zrotation
										JOINT mixamorig:RightHandThumb3
										{
											OFFSET -6.062469 -3.500153 3.500166
											CHANNELS 3 Xrotation Yrotation Zrotation
											JOINT mixamorig:RightHandThumb4
											{
												OFFSET -4.792618 -2.767029 2.767022
												CHANNELS 3 Xrotation Yrotation Zrotation
												End Site
												{
													OFFSET -0.100327 6.053253 1.276754
												}
											}
										}
									}
								}
								JOINT mixamorig:RightHandIndex1
								{
									OFFSET -23.048981 -0.310791 4.992554
									CHANNELS 3 Xrotation Yrotation Zrotation
									JOINT mixamorig:RightHandIndex2
									{
										OFFSET -6.227539 0.000000 0.000000
										CHANNELS 3 Xrotation Yrotation Zrotation
										JOINT mixamorig:RightHandIndex3
										{
											OFFSET -6.095047 0.000000 0.000000
											CHANNELS 3 Xrotation Yrotation Zrotation
											JOINT mixamorig:RightHandIndex4
											{
												OFFSET -5.484772 0.000000 0.000000
												CHANNELS 3 Xrotation Yrotation Zrotation
												End Site
												{
													OFFSET 1.420593 5.237305 0.797056
												}
											}
										}
									}
								}
								JOINT mixamorig:RightHandRing1
								{
									OFFSET -22.246323 0.020569 -3.963762
									CHANNELS 3 Xrotation Yrotation Zrotation
									JOINT mixamorig:RightHandRing2
									{
										OFFSET -6.322128 0.000000 0.000000
										CHANNELS 3 Xrotation Yrotation Zrotation
										JOINT mixamorig:RightHandRing3
										{
											OFFSET -5.900024 0.000000 0.000000
											CHANNELS 3 Xrotation Yrotation Zrotation
											JOINT mixamorig:RightHandRing4
											{
												OFFSET -6.518356 0.000000 0.000000
												CHANNELS 3 Xrotation Yrotation Zrotation
												End Site
												{
													OFFSET 1.636398 6.232697 0.982186
												}
											}
										}
									}
								}
								JOINT mixamorig:RightHandPinky1
								{
									OFFSET -20.411011 -0.303314 -8.561701
									CHANNELS 3 Xrotation Yrotation Zrotation
									JOINT mixamorig:RightHandPinky2
									{
										OFFSET -6.907349 0.000000 0.000000
										CHANNELS 3 Xrotation Yrotation Zrotation
										JOINT mixamorig:RightHandPinky3
										{
											OFFSET -4.623840 0.000000 0.000000
											CHANNELS 3 Xrotation Yrotation Zrotation
											JOINT mixamorig:RightHandPinky4
											{
												OFFSET -5.218353 0.000000 0.000000
												CHANNELS 3 Xrotation Yrotation Zrotation
												End Site
												{
													OFFSET 0.602097 5.118835 0.816273
												}
											}
										}
									}
								}
							}
						}
					}
				}
			}
		}
	}
	JOINT mixamorig:LeftUpLeg
	{
		OFFSET 18.168400 -13.561905 -0.039000
		CHANNELS 3 Xrotation Yrotation Zrotation
		JOINT mixamorig:LeftLeg
		{
			OFFSET 0.577358 -80.825211 -3.695000
			CHANNELS 3 Xrotation Yrotation Zrotation
			JOINT mixamorig:LeftFoot
			{
				OFFSET -0.577356 -83.370262 -6.520700
				CHANNELS 3 Xrotation Yrotation Zrotation
				JOINT mixamorig:LeftToeBase
				{
					OFFSET 0.750401 -20.798306 25.135401
					CHANNELS 3 Xrotation Yrotation Zrotation
					JOINT mixamorig:LeftToe_End
					{
						OFFSET -0.000500 0.001200 19.917799
						CHANNELS 3 Xrotation Yrotation Zrotation
						End Site
						{
							OFFSET 0.000000 19.917805 0.000000
						}
					}
				}
			}
		}
	}
	JOINT mixamorig:RightUpLeg
	{
		OFFSET -18.162500 -13.585098 -0.041000
		CHANNELS 3 Xrotation Yrotation Zrotation
		JOINT mixamorig:RightLeg
		{
			OFFSET -0.595024 -80.945297 -3.631900
			CHANNELS 3 Xrotation Yrotation Zrotation
			JOINT mixamorig:RightFoot
			{
				OFFSET 0.595024 -83.218193 -6.561200
				CHANNELS 3 Xrotation Yrotation Zrotation
				JOINT mixamorig:RightToeBase
				{
					OFFSET -0.753601 -20.807106 25.115000
					CHANNELS 3 Xrotation Yrotation Zrotation
					JOINT mixamorig:RightToe_End
					{
						OFFSET 0.000299 0.001700 19.918200
						CHANNELS 3 Xrotation Yrotation Zrotation
						End Site
						{
							OFFSET 0.000000 19.918203 0.000000
						}
					}
				}
			}
		}
	}
}
MOTION
Frames: 6
Frame Time: 0.033333
-0.644463 212.016220 0.598373 23.122699 -72.535147 20.166922 8.186532 16.910749 2.196643 2.736880 4.385918 0.692469 2.730984 4.376437 0.743928 -25.050812 4.333949 3.482179 10.925432 26.050596 -18.024357 -0.000000 0.000000 0.000000 -0.000000 0.000000 0.000000 -0.000000 0.000000 0.000000 -0.065103 3.496892 0.343483 -63.887137 8.560406 -76.747448 0.000041 -65.050100 0.000034 -110.557963 3.184816 23.473589 0.393740 5.497619 -52.451625 3.387387 5.308745 -65.060229 0.280922 1.794029 -17.797210 -0.000001 0.000001 0.000007 4.718923 9.562329 3.119386 19.478675 -1.503572 7.648423 -4.529473 -9.611903 1.490972 -0.000002 0.000000 0.000002 -0.221801 3.921862 -36.750308 2.945318 5.080723 -60.180503 0.514009 2.401566 -24.158471 0.000004 -0.000000 0.000004 -0.073050 5.734955 -61.025678 4.056974 5.570138 -72.114797 0.581885 2.547347 -25.730441 -0.000000 -0.000003 0.000000 -6.574796 4.532577 -72.379330 3.302031 5.268374 -64.134103 0.175502 1.424672 -14.045465 0.000000 0.000001 0.000004 0.446958 2.118986 0.781924 -45.129765 63.300861 60.531916 0.000763 99.227930 -0.000783 -50.908726 -21.930569 -22.111240 3.414502 -7.187966 51.637583 6.297119 -4.359469 110.638573 0.247132 -1.498414 18.729924 0.000001 -0.000000 0.000001 8.409530 -4.897825 11.030674 21.634447 -18.171457 -18.378424 -0.686948 -49.858448 -32.547074 -0.000001 -0.000000 0.000002 -0.922871 1.689269 12.452971 0.749242 -2.535185 32.923803 0.616656 -2.317869 29.793220 0.000001 0.000000 -0.000004 -3.352746 -2.594932 56.988424 5.441361 -4.590806 99.704451 1.687310 -3.588972 50.348852 -0.000001 0.000001 -0.000004 -4.001570 -3.299513 64.580163 4.061662 -4.619025 82.645576 2.316763 -4.027501 59.804535 -0.000001 0.000001 -0.000001 -31.890129 40.170026 25.879829 17.584064 10.307208 1.181939 20.632734 27.206942 -8.403426 9.448636 0.000278 -0.161950 0.000001 -0.000000 -0.000000 -19.933878 13.914712 -7.679796 11.475227 9.367295 -2.754347 8.344436 -4.544565 29.677582 0.026669 -0.000006 0.000001 0.000000 0.000001 0.000001 
-4.328274 226.123276 0.566460 25.253453 -74.098748 21.929605 4.742569 18.414077 2.592412 1.849212 4.855634 0.637077 1.865821 4.840193 0.682808 -24.547560 4.735971 2.267422 14.964531 24.596712 -19.997091 -0.000000 0.000000 0.000001 -0.000000 0.000000 0.000001 -0.000000 0.000000 0.000001 -0.066160 3.496723 0.343519 -65.210425 9.298921 -75.156854 0.000019 -60.105801 0.000026 -106.442214 6.109321 25.068270 0.393206 5.497221 -52.451563 3.387388 5.308744 -65.060236 0.280867 1.793860 -17.795691 -0.000001 0.000002 -0.000001 4.718923 9.562330 3.119386 19.478916 -1.504837 7.648927 -4.529470 -9.611912 1.490975 -0.000001 0.000001 -0.000002 -0.222194 3.921364 -36.750458 2.945432 5.080795 -60.182081 0.514007 2.401564 -24.158470 -0.000004 -0.000002 -0.000002 -0.072983 5.734897 -61.024120 4.057057 5.570158 -72.115664 0.581849 2.547273 -25.729664 -0.000001 -0.000001 0.000001 -6.575187 4.532044 -72.377308 3.302152 5.268433 -64.135271 0.175512 1.424672 -14.045464 -0.000004 -0.000001 0.000002 0.470168 2.393483 1.300403 -49.242536 64.165939 68.116029 0.000715 94.112521 -0.000752 -52.916498 -19.243173 -21.085902 3.414502 -7.187966 51.637583 6.297119 -4.359469 110.638567 0.247056 -1.498192 18.727303 0.000002 -0.000000 -0.000000 8.410941 -4.897543 11.031055 21.635060 -18.170924 -18.378407 -0.686245 -49.860063 -32.547556 0.000003 0.000000 0.000001 -0.922986 1.689534 12.453756 0.749301 -2.535268 32.924906 0.616709 -2.317927 29.794313 0.000002 -0.000000 -0.000001 -3.352923 -2.594721 56.987482 5.441359 -4.590806 99.704458 1.687230 -3.588884 50.347408 -0.000000 -0.000000 0.000000 -4.001786 -3.299307 64.579541 4.061784 -4.619036 82.647085 2.316803 -4.027534 59.805259 0.000001 0.000001 -0.000000 -28.464286 38.758089 24.532300 16.299029 10.337794 2.298707 32.957906 25.744689 -10.422590 16.290146 -0.000001 -0.000004 0.000001 0.000000 0.000001 -19.283075 13.300713 -6.014455 16.138514 9.299282 -2.806096 9.334327 -12.084028 29.797288 5.456754 0.000023 0.000001 -0.000001 0.000000 -0.000000 
-5.412885 240.065811 0.456846 19.873737 -74.951853 16.642352 5.029636 19.025026 3.262752 1.730512 5.261050 0.755889 1.762318 5.245690 0.778336 -22.867323 4.366569 2.502256 14.934704 23.771106 -21.389899 -0.000000 0.000001 -0.000001 -0.000000 0.000001 -0.000001 -0.000000 0.000001 -0.000001 -0.067147 3.496569 0.343540 -66.622307 7.938146 -74.555401 -0.000028 -52.541073 -0.000010 -104.835836 7.452833 20.914266 0.392690 5.496820 -52.451475 3.387385 5.308745 -65.060229 0.280823 1.793721 -17.794159 0.000002 -0.000002 0.000000 4.718919 9.562331 3.119384 19.479148 -1.506059 7.649421 -4.529467 -9.611907 1.490972 -0.000002 0.000000 -0.000002 -0.222584 3.920845 -36.750605 2.945585 5.080874 -60.183611 0.514011 2.401567 -24.158470 0.000002 0.000001 0.000001 -0.072927 5.734812 -61.022549 4.057154 5.570187 -72.116511 0.581824 2.547196 -25.728913 -0.000001 0.000002 0.000001 -6.575590 4.531509 -72.375314 3.302253 5.268466 -64.136385 0.175510 1.424669 -14.045464 -0.000002 0.000002 -0.000004 0.572026 3.944128 2.531906 -47.506428 62.619372 69.883579 0.013410 89.710976 -0.012542 -49.850621 -17.473880 -17.380461 3.414504 -7.187966 51.637593 6.297119 -4.359469 110.638573 0.247017 -1.498005 18.724678 0.000002 -0.000000 -0.000000 8.412346 -4.897276 11.031434 21.635693 -18.170380 -18.378388 -0.685559 -49.861689 -32.548064 -0.000002 0.000001 0.000001 -0.923121 1.689777 12.454544 0.749353 -2.535326 32.926009 0.616765 -2.318018 29.795423 -0.000000 0.000001 -0.000001 -3.353079 -2.594463 56.986505 5.441360 -4.590805 99.704458 1.687124 -3.588801 50.345953 -0.000001 -0.000000 -0.000003 -4.002002 -3.299099 64.578954 4.061897 -4.619045 82.648608 2.316851 -4.027555 59.806038 -0.000001 -0.000001 0.000002 -23.721894 34.190967 23.139066 26.522697 6.315070 2.070624 27.995516 21.630989 -12.443270 16.309787 -0.000003 -0.000009 -0.000002 -0.000000 0.000000 -22.877068 8.810142 -4.134232 33.087168 8.232477 -2.071298 10.237855 -9.063201 29.900529 6.263119 -0.000015 0.000005 -0.000001 0.000002 0.000000 
-3.831066 248.399719 0.233274 9.239059 -74.715514 7.069161 8.580572 18.466934 3.050998 2.469418 5.211720 0.860319 2.508391 5.193090 0.859320 -21.032816 3.927654 3.510082 13.399313 24.250865 -22.772607 -0.000001 -0.000002 -0.000001 -0.000001 -0.000002 -0.000001 -0.000001 -0.000002 -0.000001 -0.068049 3.496409 0.343570 -69.527043 6.465474 -74.809744 0.000016 -47.881317 0.000008 -103.768557 7.837669 18.487848 0.392161 5.496400 -52.451413 3.387390 5.308743 -65.060229 0.280769 1.793591 -17.792631 0.000001 0.000000 0.000002 4.718919 9.562328 3.119385 19.479394 -1.507313 7.649919 -4.529472 -9.611903 1.490972 -0.000001 -0.000001 0.000001 -0.222973 3.920307 -36.750734 2.945722 5.080965 -60.185182 0.514010 2.401565 -24.158473 0.000001 0.000001 -0.000002 -0.072870 5.734715 -61.021012 4.057220 5.570206 -72.117386 0.581781 2.547141 -25.728132 -0.000003 0.000002 0.000001 -6.576002 4.530931 -72.373313 3.302340 5.268517 -64.137532 0.175504 1.424671 -14.045464 0.000000 -0.000003 0.000002 0.619976 5.107133 3.910937 -47.243688 59.656477 70.877139 0.000084 88.284600 0.000251 -46.472570 -18.005789 -14.538995 3.414504 -7.187967 51.637583 6.297119 -4.359469 110.638573 0.246919 -1.497801 18.722069 0.000001 -0.000000 -0.000001 8.413742 -4.897017 11.031824 21.636296 -18.169854 -18.378359 -0.684859 -49.863304 -32.548597 0.000002 -0.000002 -0.000000 -0.923237 1.690026 12.455319 0.749372 -2.535430 32.927119 0.616816 -2.318084 29.796523 0.000002 -0.000001 0.000000 -3.353239 -2.594223 56.985545 5.441360 -4.590805 99.704458 1.687032 -3.588752 50.344505 -0.000002 -0.000001 0.000002 -4.002233 -3.298933 64.578366 4.062033 -4.619068 82.650104 2.316911 -4.027576 59.806789 -0.000001 -0.000000 0.000001 -27.859575 22.549533 23.108630 58.559884 0.695054 1.976273 18.503944 17.424689 -13.507250 13.395770 0.000003 -0.000005 -0.000002 0.000000 0.000002 -32.839116 0.525939 -6.779870 61.723982 8.948733 -1.170767 10.751774 1.176008 27.452969 6.211996 -0.000001 -0.000014 -0.000003 0.000001 0.000001 
-1.030485 254.350662 -0.063561 3.764965 -74.258752 3.320845 12.525881 17.637647 2.071602 3.474299 5.076942 0.821070 3.518484 5.050968 0.803132 -19.588356 3.938224 4.157736 12.778479 25.716880 -23.862198 0.000000 -0.000001 0.000000 0.000000 -0.000001 0.000000 0.000000 -0.000001 0.000000 -0.068900 3.496302 0.343578 -73.080196 5.132767 -75.130394 -0.000018 -42.998725 -0.000017 -103.430190 7.991257 16.831367 0.391628 5.495995 -52.451369 3.387390 5.308745 -65.060229 0.280726 1.793444 -17.791075 0.000001 0.000001 0.000001 4.718921 9.562330 3.119386 19.479641 -1.508569 7.650427 -4.529476 -9.611905 1.490970 0.000004 -0.000001 -0.000000 -0.223370 3.919820 -36.750885 2.945864 5.081035 -60.186753 0.514011 2.401566 -24.158473 -0.000000 -0.000001 -0.000001 -0.072813 5.734661 -61.019455 4.057302 5.570237 -72.118267 0.581743 2.547078 -25.727364 -0.000000 -0.000000 -0.000001 -6.576404 4.530402 -72.371325 3.302451 5.268578 -64.138707 0.175510 1.424674 -14.045466 0.000002 -0.000001 -0.000003 0.628333 5.710193 4.828128 -48.972648 57.853512 71.696598 -0.000781 87.112738 0.000819 -45.428148 -19.389075 -12.973476 3.414502 -7.187966 51.637586 6.297118 -4.359470 110.638567 0.246871 -1.497587 18.719441 0.000001 -0.000000 -0.000000 8.415151 -4.896724 11.032192 21.636933 -18.169323 -18.378321 -0.684163 -49.864926 -32.549103 0.000004 -0.000001 -0.000003 -0.923373 1.690276 12.456100 0.749438 -2.535505 32.928226 0.616831 -2.318176 29.797639 0.000001 -0.000000 -0.000001 -3.353403 -2.593990 56.984593 5.441361 -4.590807 99.704451 1.686952 -3.588654 50.343067 -0.000001 0.000001 -0.000002 -4.002461 -3.298725 64.577752 4.062150 -4.619091 82.651641 2.316968 -4.027624 59.807541 0.000001 0.000001 -0.000002 -35.209813 13.372534 19.650062 85.342032 0.002588 1.418959 11.049048 12.612687 -15.790287 14.333864 0.000001 0.000000 0.000000 -0.000000 0.000000 -44.199831 -1.488652 -10.756997 86.633539 7.780743 -0.932009 12.703313 2.391759 25.099460 7.816772 -0.000013 0.000009 -0.000003 0.000001 0.000000 
2.590598 259.331665 -0.286687 6.818153 -74.420662 8.144157 15.385344 17.076305 0.750388 4.251684 5.064050 0.613022 4.300106 5.029556 0.587941 -18.438821 4.120632 4.509567 12.333719 27.336908 -25.240018 -0.000001 -0.000000 0.000000 -0.000001 -0.000000 0.000000 -0.000001 -0.000000 0.000000 -0.069680 3.496190 0.343594 -76.500509 4.128338 -75.600379 0.000010 -38.256351 0.000001 -104.090580 7.839162 15.224034 0.391107 5.495577 -52.451280 3.387387 5.308747 -65.060229 0.280675 1.793287 -17.789554 0.000001 -0.000002 0.000001 4.718920 9.562327 3.119386 19.479867 -1.509797 7.650924 -4.529477 -9.611905 1.490976 0.000000 -0.000003 0.000002 -0.223749 3.919291 -36.751014 2.945997 5.081116 -60.188289 0.514015 2.401565 -24.158468 -0.000000 -0.000000 -0.000002 -0.072760 5.734558 -61.017898 4.057383 5.570272 -72.119121 0.581710 2.547003 -25.726599 -0.000001 -0.000000 0.000004 -6.576808 4.529842 -72.369331 3.302553 5.268629 -64.139834 0.175507 1.424674 -14.045462 0.000000 -0.000002 0.000002 0.630677 5.924843 4.998307 -51.349591 57.241384 71.524498 0.000530 86.190137 -0.000545 -46.000433 -21.099981 -12.314772 3.414503 -7.187966 51.637589 6.297118 -4.359469 110.638573 0.246783 -1.497399 18.716807 0.000001 -0.000000 0.000001 8.416571 -4.896452 11.032571 21.637534 -18.168774 -18.378282 -0.683469 -49.866538 -32.549628 -0.000001 -0.000003 -0.000001 -0.923491 1.690496 12.456900 0.749501 -2.535577 32.929332 0.616893 -2.318242 29.798729 -0.000000 -0.000000 -0.000001 -3.353561 -2.593742 56.983623 5.441361 -4.590805 99.704458 1.686854 -3.588587 50.341592 0.000001 0.000001 -0.000003 -4.002675 -3.298540 64.577150 4.062274 -4.619100 82.653144 2.317019 -4.027637 59.808312 -0.000002 0.000000 0.000002 -48.483138 8.318998 16.926206 103.482550 2.318414 0.227489 3.526359 7.817024 -20.895596 15.382730 -0.000004 0.000006 0.000001 -0.000000 0.000003 -59.484841 -1.191309 -16.066700 106.959383 6.056697 -1.373435 15.111778 -3.745826 24.264838 8.006656 -0.000006 0.000002 0.000000 0.000000 0.000000 
